v 10.0 10.0 0.0
v 10.29 15.700000000000001 0.0
v 11.120000000000001 20.800000000000004 0.0
v 12.429999999999998 25.3 0.0
v 14.160000000000002 29.2 0.0
v 16.25 32.5 0.0
v 18.64 35.2 0.0
v 21.27 37.3 0.0
v 24.080000000000002 38.8 0.0
v 27.009999999999998 39.699999999999996 0.0
v 30.0 40.0 0.0
v 32.99 39.699999999999996 0.0
v 35.92000000000001 38.8 0.0
v 38.730000000000004 37.30000000000001 0.0
v 41.36 35.20000000000001 0.0
v 43.75 32.5 0.0
v 45.84 29.2 0.0
v 47.56999999999999 25.30000000000001 0.0
v 48.879999999999995 20.800000000000004 0.0
v 49.71 15.699999999999982 0.0
v 50.0 10.0 0.0
o CURVA
